<?xml version="1.0" encoding="UTF-8"?>
<svg id="Layer_1" xmlns="http://www.w3.org/2000/svg" version="1.1" viewBox="0 0 64 64">
  <!-- Generator: Adobe Illustrator 29.0.1, SVG Export Plug-In . SVG Version: 2.1.0 Build 192)  -->
  <defs>
    <style>
      .st0 {
        fill: #fbefef;
      }

      .st1 {
        fill: #f5afaf;
      }
    </style>
  </defs>
  <g>
    <path class="st0" d="M33.4,17.7c4.8-4.7,12.1-4.1,16,1.5s2.4,9.4.3,13.7-10.8,11.7-15.8,14.6-.3.3-.6.2v-29.9ZM36.9,40.8l2.6-1.9c4.7-4,10.3-9.9,7.4-16.5-1.7-4-6.5-5.8-10-2.8v21.2Z"/>
    <path class="st0" d="M30.7,47.6c0,.1-.7-.3-.9-.4-5.9-3.5-14.4-10.2-16.5-16.9-3.5-11.2,7.8-21,17.3-12.8v9.6c0,0-4.9,2.9-4.9,2.9l4.9,2.8v14.8ZM16.4,28.1h5.2c.7,0,4.5-2.9,5.5-3.2v-5.6c-6.4-3.9-12.1,2.3-10.7,8.8ZM27.1,34.7l-5.3-3h-3.8c.7,1.5,1.9,3,3,4.2s2.4,2.2,3.7,3.3l2.5,1.7v-6.1Z"/>
  </g>
  <g>
    <path class="st1" d="M49.2,14.5c2.8,2.4,4.6,5.9,5.1,9.5,1.7,12.9-12.2,21.9-21.6,27.8-.7.3-1,.2-1.7-.1-1.8-.9-4.9-3.1-6.7-4.3-5.2-3.6-11.8-9.5-13.9-15.6-3.5-10.1,3.2-21.3,14.5-20.3s4.9,1.9,6.9,3c1-.3,1.7-1,2.6-1.5,4.8-2.5,10.6-2.2,14.7,1.4ZM30.7,47.6v-14.8l-4.9-2.8,4.8-2.9v-9.6c-9.5-8.2-20.8,1.5-17.3,12.8s10.6,13.4,16.5,16.9.8.5.9.4ZM33.4,17.7v29.9c.3,0,.4,0,.6-.2,4.9-2.8,13.3-9.4,15.8-14.6s2.5-9.7-.3-13.7-11.2-6.1-16-1.5Z"/>
    <g>
      <path class="st1" d="M36.9,40.8v-21.2c3.5-3,8.3-1.2,10,2.8,2.9,6.7-2.7,12.6-7.4,16.5l-2.6,1.9Z"/>
      <path class="st1" d="M16.4,28.1c-1.5-6.5,4.3-12.7,10.6-8.8v5.6c-1,.2-4.8,3.2-5.5,3.2h-5.2Z"/>
      <path class="st1" d="M27.1,34.7v6.1l-2.5-1.7c-1.2-1.1-2.5-2.1-3.7-3.3s-2.3-2.7-3-4.2h3.8l5.3,3Z"/>
    </g>
  </g>
</svg>